<svg version="1.1" xmlns="http://www.w3.org/2000/svg" xmlns:xlink="http://www.w3.org/1999/xlink" width="512" height="512" style="enable-background:new 0 0 512 512;" xml:space="preserve"><rect id="backgroundrect" width="100%" height="100%" x="0" y="0" fill="none" stroke="none"/>
<g class="currentLayer" style=""><title>Layer 1</title><g class="selected"><path fill="#000000" d="M340.8068969845772,113.94315338134766 v31.00200843811035 h-30.08675193786621 V113.94315338134766 H190.37312012910843 v31.00200843811035 h-30.08675193786621 V113.94315338134766 H130.19958192110062 v279.015869140625 h30.08675193786621 v-31.00128173828125 h30.08675193786621 V392.958740234375 h120.34700775146484 v-31.00128173828125 h30.08675193786621 V392.958740234375 h30.08675193786621 V113.94315338134766 H340.8068969845772 zM190.37312012910843,330.9554443359375 h-30.08675193786621 V299.9534912109375 h30.08675193786621 V330.9554443359375 zM190.37312012910843,268.9521789550781 h-30.08675193786621 v-31.00200843811035 h30.08675193786621 V268.9521789550781 zM190.37312012910843,206.9484405517578 h-30.08675193786621 v-31.00128173828125 h30.08675193786621 V206.9484405517578 zM340.8068969845772,330.9554443359375 h-30.08675193786621 V299.9534912109375 h30.08675193786621 V330.9554443359375 zM340.8068969845772,268.9521789550781 h-30.08675193786621 v-31.00200843811035 h30.08675193786621 V268.9521789550781 zM340.8068969845772,206.9484405517578 h-30.08675193786621 v-31.00128173828125 h30.08675193786621 V206.9484405517578 z" id="svg_9" class="" transform="rotate(90, 250, 250)"/><g id="svg_1" class="">
	<polygon points="380.7613525390625,101.46503448486328 424.5888366699219,57.70612716674805 390.36358642578125,23.480911254882812 478.15576171875,23.480911254882812 478.15576171875,111.27306365966797 443.9305419921875,77.04784393310547 400.171630859375,120.87532806396484 " id="svg_2"/>
</g><g id="svg_3" class="">
	<polygon points="380.7613525390625,407.4082336425781 424.5888366699219,451.1671142578125 390.36358642578125,485.392333984375 478.15576171875,485.392333984375 478.15576171875,397.6002197265625 443.9305419921875,431.8254089355469 400.171630859375,387.9979248046875 " id="svg_4"/>
</g><g id="svg_5" class="">
	<polygon points="121.63868713378906,407.4082336425781 77.81120300292969,451.1671447753906 112.03641510009766,485.392333984375 24.24427032470703,485.392333984375 24.24427032470703,397.60020446777344 58.469486236572266,431.825439453125 102.2283935546875,387.99794006347656 " id="svg_6"/>
</g><g id="svg_7" class="">
	<polygon points="121.63868424602697,101.46503189312352 77.81120508177673,57.7061288357354 112.03641757675359,23.480911107938482 24.244270404788494,23.480911107938482 24.244270404788494,111.27306351272364 58.46948813258541,77.04784578492672 102.2283964227936,120.87533018199701 " id="svg_8"/>
</g></g></g></svg>